<?xml version="1.0" encoding="UTF-8"?>
<svg xmlns="http://www.w3.org/2000/svg" width="161" height="37" viewBox="0 0 161 37" fill="none">
  <g clip-path="url(#clip0_10_568)">
    <path fill-rule="evenodd" clip-rule="evenodd" d="M0.924988 0V28.361L15.434 36.986L29.943 28.361V0H0.924988ZM28.388 1.58V11.677L15.434 3.079L2.47999 11.677V1.58H28.388ZM6.69599 29.961V16.046L15.434 10.246L24.172 16.046V29.961L15.434 35.155L6.69599 29.961ZM25.727 29.037V15.191L15.434 8.359L5.14099 15.191V29.037L2.47999 27.456V13.563L15.434 4.966L28.388 13.563V27.456L25.727 29.037Z" fill="#DC363C"></path>
    <path fill-rule="evenodd" clip-rule="evenodd" d="M161 12.01V15.699H150.838V0.329H160.886V3.996H154.88V6.125H160.322V9.749H154.88V12.01H161ZM143.364 16.029C141.693 16.029 140.308 15.685 139.21 14.997C138.111 14.308 137.342 13.378 136.906 12.207L140.362 10.253C140.949 11.615 141.987 12.296 143.477 12.296C144.711 12.296 145.329 11.955 145.329 11.272C145.329 10.823 144.973 10.461 144.262 10.184C143.961 10.064 143.301 9.86 142.281 9.573C140.835 9.163 139.691 8.589 138.849 7.85C138.005 7.11 137.583 6.081 137.583 4.765C137.583 3.345 138.107 2.195 139.153 1.317C140.199 0.439 141.505 0 143.071 0C144.395 0 145.569 0.3 146.593 0.901C147.617 1.5 148.4 2.371 148.942 3.513L145.555 5.446C145.058 4.303 144.238 3.732 143.094 3.732C142.611 3.732 142.246 3.829 141.998 4.019C141.75 4.211 141.626 4.454 141.626 4.748C141.626 5.087 141.809 5.373 142.178 5.609C142.546 5.844 143.264 6.117 144.33 6.426C145.082 6.69 145.696 6.905 146.17 7.071C146.646 7.237 147.163 7.5 147.72 7.857C148.278 8.215 148.692 8.675 148.964 9.238C149.235 9.801 149.371 10.461 149.371 11.22C149.371 12.728 148.821 13.906 147.723 14.755C146.624 15.604 145.17 16.029 143.364 16.029ZM137.629 31.891H134.852V31.325L135.743 31.147L135.379 30.122H132.89L132.516 31.147L133.416 31.325V31.891H130.783V31.325L131.568 31.147L133.751 25.421L134.708 25.374L136.834 31.147L137.629 31.325V31.891ZM134.153 26.576L133.148 29.378H135.12L134.153 26.576ZM129.162 16.029C127.324 16.029 125.823 15.538 124.656 14.558C123.489 13.577 122.906 12.273 122.906 10.649V0.329H126.948V10.276C126.948 11.564 127.686 12.207 129.162 12.207C130.636 12.207 131.374 11.564 131.374 10.276V0.329H135.416V10.649C135.416 12.273 134.832 13.577 133.666 14.558C132.499 15.538 130.997 16.029 129.162 16.029ZM112.97 16.029C110.652 16.029 108.692 15.257 107.088 13.712C105.485 12.168 104.683 10.268 104.683 8.014C104.683 5.761 105.485 3.86 107.088 2.316C108.692 0.772 110.652 0 112.97 0C115.288 0 117.249 0.772 118.852 2.316C120.455 3.86 121.258 5.761 121.258 8.014C121.258 10.268 120.455 12.168 118.852 13.712C117.249 15.257 115.288 16.029 112.97 16.029ZM116.018 5.017C115.206 4.235 114.189 3.843 112.97 3.843C111.751 3.843 110.735 4.235 109.922 5.017C109.109 5.8 108.702 6.799 108.702 8.014C108.702 9.23 109.109 10.229 109.922 11.011C110.735 11.795 111.751 12.186 112.97 12.186C114.189 12.186 115.206 11.795 116.018 11.011C116.832 10.229 117.238 9.23 117.238 8.014C117.238 6.799 116.832 5.8 116.018 5.017ZM98.766 9.793H94.318V15.699H90.276V0.329H94.318V6.017H98.766V0.329H102.786V15.699H98.766V9.793ZM79.325 0.329H83.367V11.9H88.809V15.699H79.325V0.329ZM80.968 25.933L80.154 26.12V31.147H82.117L82.308 30.075H82.978V31.891H78.335V31.333L79.148 31.147V26.12L78.335 25.933V25.421L80.968 25.374V25.933ZM68.374 0.329H72.415V11.9H77.858V15.699H68.374V0.329ZM71.413 31.147L72.207 31.325V31.891H69.431V31.325L70.321 31.147L69.957 30.122H67.468L67.095 31.147L67.995 31.325V31.891H65.362V31.325L66.146 31.147L68.33 25.421L69.287 25.374L71.413 31.147ZM67.727 29.378H69.699L68.731 26.576L67.727 29.378ZM59.794 16.029C57.956 16.029 56.455 15.538 55.288 14.558C54.121 13.577 53.538 12.273 53.538 10.649V0.329H57.58V10.276C57.58 11.564 58.318 12.207 59.794 12.207C61.268 12.207 62.006 11.564 62.006 10.276V0.329H66.048V10.649C66.048 12.273 65.464 13.577 64.298 14.558C63.131 15.538 61.63 16.029 59.794 16.029ZM46.041 6.631H51.597V10.43H46.041V15.699H42V0.329H51.71V4.128H46.041V6.631ZM44.872 25.374C45.549 25.374 46.077 25.524 46.456 25.821C46.836 26.12 47.026 26.529 47.026 27.05C47.026 27.962 46.611 28.569 45.782 28.866C45.935 28.996 46.126 29.275 46.356 29.703L47.113 31.184L47.793 31.333V31.891H46.356L45.542 30.169C45.319 29.703 45.126 29.401 44.963 29.261C44.8 29.122 44.562 29.052 44.25 29.052H43.819V31.147L44.633 31.333V31.891H42V31.333L42.814 31.147V26.12L42 25.933V25.421L43.819 25.374H44.872ZM43.819 28.354H44.537C45.003 28.354 45.367 28.251 45.628 28.047C45.89 27.841 46.021 27.571 46.021 27.237C46.021 26.895 45.909 26.623 45.686 26.422C45.462 26.22 45.175 26.12 44.824 26.12H43.819V28.354ZM58.899 25.374V26.958H58.276L58.037 26.12H55.978V28.12H58.18V28.866H55.978V31.147H58.18L58.371 30.216H58.994V31.891H54.159V31.333L54.972 31.147V26.12L54.159 25.933V25.421L55.978 25.374H58.899ZM102.08 25.374V26.958H101.457L101.218 26.12H99.159V28.12H101.361V28.866H99.159V31.147H101.361L101.552 30.216H102.175V31.891H97.34V31.333L98.154 31.147V26.12L97.34 25.933V25.421L99.159 25.374H102.08ZM110.121 30.96C110.236 31.023 110.393 31.077 110.591 31.123C110.789 31.17 110.983 31.193 111.175 31.193C111.366 31.193 111.551 31.17 111.73 31.123C111.909 31.077 112.065 31.01 112.199 30.923C112.333 30.835 112.44 30.732 112.52 30.612C112.599 30.49 112.64 30.352 112.64 30.197C112.64 30.017 112.588 29.867 112.486 29.746C112.384 29.624 112.252 29.519 112.089 29.429C111.926 29.34 111.743 29.26 111.538 29.192C111.334 29.124 111.127 29.052 110.916 28.977C110.693 28.884 110.477 28.79 110.27 28.693C110.062 28.597 109.877 28.479 109.715 28.34C109.551 28.2 109.423 28.031 109.327 27.832C109.231 27.634 109.184 27.388 109.184 27.096C109.184 26.786 109.245 26.516 109.37 26.287C109.495 26.057 109.66 25.867 109.868 25.719C110.075 25.571 110.318 25.46 110.596 25.389C110.873 25.317 111.165 25.282 111.472 25.282C111.612 25.282 111.762 25.291 111.921 25.309C112.081 25.328 112.237 25.351 112.391 25.379C112.544 25.407 112.687 25.438 112.821 25.472C112.956 25.506 113.07 25.536 113.166 25.561L113.473 25.654L113.425 27.237H112.802L112.476 26.24C112.298 26.184 112.121 26.144 111.945 26.12C111.77 26.095 111.59 26.082 111.404 26.082C111.219 26.082 111.052 26.106 110.902 26.152C110.751 26.198 110.624 26.262 110.519 26.343C110.413 26.423 110.332 26.514 110.275 26.613C110.217 26.712 110.188 26.814 110.188 26.92C110.195 27.181 110.284 27.385 110.456 27.535C110.629 27.683 110.842 27.81 111.098 27.916C111.354 28.021 111.629 28.12 111.926 28.214C112.223 28.307 112.498 28.423 112.749 28.563C113.002 28.702 113.212 28.884 113.381 29.108C113.55 29.331 113.635 29.623 113.635 29.983C113.635 30.305 113.572 30.591 113.444 30.84C113.316 31.088 113.14 31.298 112.917 31.468C112.694 31.638 112.428 31.769 112.122 31.859C111.816 31.948 111.487 31.994 111.136 31.994C110.996 31.994 110.844 31.985 110.681 31.966C110.519 31.947 110.359 31.924 110.203 31.896C110.046 31.868 109.901 31.837 109.767 31.802C109.633 31.769 109.522 31.737 109.432 31.705L109.164 31.612V29.983H109.93L110.121 30.96ZM125.278 27.05H124.655L124.416 26.12H123.171V31.147L124.129 31.333V31.891H121.209V31.333L122.165 31.147V26.12H120.921L120.682 27.05H120.06V25.374H125.278V27.05ZM148.352 27.05H147.73L147.49 26.12H146.245V31.147L147.203 31.333V31.891H144.283V31.333L145.24 31.147V26.12H143.996L143.756 27.05H143.134V25.374H148.352V27.05ZM159.507 25.374V26.958H158.884L158.645 26.12H156.587V28.12H158.788V28.866H156.587V31.147H158.788L158.979 30.216H159.602V31.891H154.767V31.333L155.581 31.147V26.12L154.767 25.933V25.421L156.587 25.374H159.507Z" fill="#2A2A2A"></path>
  </g>
  <defs>
    <clipPath id="clip0_10_568">
      <rect width="161" height="37" fill="white"></rect>
    </clipPath>
  </defs>
</svg>
